<mxfile host="65bd71144e">
    <diagram id="udXEeILnEq3M2lwRZmjO" name="Page-1">
        <mxGraphModel dx="771" dy="529" grid="1" gridSize="10" guides="1" tooltips="1" connect="1" arrows="1" fold="1" page="1" pageScale="1" pageWidth="827" pageHeight="1169" math="0" shadow="0">
            <root>
                <mxCell id="0"/>
                <mxCell id="1" parent="0"/>
                <mxCell id="4" value="observer" style="swimlane;fontStyle=0;childLayout=stackLayout;horizontal=1;startSize=30;horizontalStack=0;resizeParent=1;resizeParentMax=0;resizeLast=0;collapsible=1;marginBottom=0;strokeColor=#FFFFFF;" vertex="1" parent="1">
                    <mxGeometry x="130" y="60" width="140" height="60" as="geometry"/>
                </mxCell>
                <mxCell id="7" value="+update()" style="text;strokeColor=#FFFFFF;fillColor=none;align=left;verticalAlign=middle;spacingLeft=4;spacingRight=4;overflow=hidden;points=[[0,0.5],[1,0.5]];portConstraint=eastwest;rotatable=0;" vertex="1" parent="4">
                    <mxGeometry y="30" width="140" height="30" as="geometry"/>
                </mxCell>
                <mxCell id="8" value="concrete observer 1" style="swimlane;fontStyle=0;childLayout=stackLayout;horizontal=1;startSize=30;horizontalStack=0;resizeParent=1;resizeParentMax=0;resizeLast=0;collapsible=1;marginBottom=0;strokeColor=#FFFFFF;" vertex="1" parent="1">
                    <mxGeometry x="50" y="170" width="140" height="60" as="geometry"/>
                </mxCell>
                <mxCell id="9" value="+update()" style="text;strokeColor=#FFFFFF;fillColor=none;align=left;verticalAlign=middle;spacingLeft=4;spacingRight=4;overflow=hidden;points=[[0,0.5],[1,0.5]];portConstraint=eastwest;rotatable=0;" vertex="1" parent="8">
                    <mxGeometry y="30" width="140" height="30" as="geometry"/>
                </mxCell>
                <mxCell id="10" value="concrete observer 1" style="swimlane;fontStyle=0;childLayout=stackLayout;horizontal=1;startSize=30;horizontalStack=0;resizeParent=1;resizeParentMax=0;resizeLast=0;collapsible=1;marginBottom=0;strokeColor=#FFFFFF;" vertex="1" parent="1">
                    <mxGeometry x="220" y="170" width="140" height="60" as="geometry"/>
                </mxCell>
                <mxCell id="11" value="+update()" style="text;strokeColor=#FFFFFF;fillColor=none;align=left;verticalAlign=middle;spacingLeft=4;spacingRight=4;overflow=hidden;points=[[0,0.5],[1,0.5]];portConstraint=eastwest;rotatable=0;" vertex="1" parent="10">
                    <mxGeometry y="30" width="140" height="30" as="geometry"/>
                </mxCell>
                <mxCell id="13" value="" style="edgeStyle=segmentEdgeStyle;endArrow=classic;html=1;exitX=0.45;exitY=-0.017;exitDx=0;exitDy=0;exitPerimeter=0;strokeColor=#FFFFFF;" edge="1" parent="1" source="8">
                    <mxGeometry width="50" height="50" relative="1" as="geometry">
                        <mxPoint x="520" y="260" as="sourcePoint"/>
                        <mxPoint x="197" y="120" as="targetPoint"/>
                        <Array as="points">
                            <mxPoint x="113" y="150"/>
                            <mxPoint x="197" y="150"/>
                        </Array>
                    </mxGeometry>
                </mxCell>
                <mxCell id="14" value="" style="edgeStyle=segmentEdgeStyle;endArrow=classic;html=1;exitX=0.557;exitY=0.017;exitDx=0;exitDy=0;exitPerimeter=0;entryX=0.471;entryY=1.09;entryDx=0;entryDy=0;entryPerimeter=0;strokeColor=#FFFFFF;" edge="1" parent="1" source="10" target="7">
                    <mxGeometry width="50" height="50" relative="1" as="geometry">
                        <mxPoint x="123" y="175.98000000000002" as="sourcePoint"/>
                        <mxPoint x="200" y="130" as="targetPoint"/>
                        <Array as="points">
                            <mxPoint x="298" y="160"/>
                            <mxPoint x="300" y="160"/>
                            <mxPoint x="300" y="150"/>
                            <mxPoint x="196" y="150"/>
                        </Array>
                    </mxGeometry>
                </mxCell>
                <mxCell id="22" value="Subject" style="swimlane;fontStyle=1;align=center;verticalAlign=top;childLayout=stackLayout;horizontal=1;startSize=26;horizontalStack=0;resizeParent=1;resizeParentMax=0;resizeLast=0;collapsible=1;marginBottom=0;strokeColor=#FFFFFF;" vertex="1" parent="1">
                    <mxGeometry x="460" y="60" width="180" height="130" as="geometry"/>
                </mxCell>
                <mxCell id="23" value="+ observerCollection" style="text;strokeColor=#FFFFFF;fillColor=none;align=left;verticalAlign=top;spacingLeft=4;spacingRight=4;overflow=hidden;rotatable=0;points=[[0,0.5],[1,0.5]];portConstraint=eastwest;" vertex="1" parent="22">
                    <mxGeometry y="26" width="180" height="26" as="geometry"/>
                </mxCell>
                <mxCell id="25" value="+ registerObserver(observer)&#10;&#10;&#10;" style="text;strokeColor=#FFFFFF;fillColor=none;align=left;verticalAlign=top;spacingLeft=4;spacingRight=4;overflow=hidden;rotatable=0;points=[[0,0.5],[1,0.5]];portConstraint=eastwest;" vertex="1" parent="22">
                    <mxGeometry y="52" width="180" height="26" as="geometry"/>
                </mxCell>
                <mxCell id="29" value="+ registerObserver(observer)&#10;&#10;&#10;" style="text;strokeColor=#FFFFFF;fillColor=none;align=left;verticalAlign=top;spacingLeft=4;spacingRight=4;overflow=hidden;rotatable=0;points=[[0,0.5],[1,0.5]];portConstraint=eastwest;" vertex="1" parent="22">
                    <mxGeometry y="78" width="180" height="26" as="geometry"/>
                </mxCell>
                <mxCell id="30" value="+ notifyObservers()" style="text;strokeColor=#FFFFFF;fillColor=none;align=left;verticalAlign=top;spacingLeft=4;spacingRight=4;overflow=hidden;rotatable=0;points=[[0,0.5],[1,0.5]];portConstraint=eastwest;" vertex="1" parent="22">
                    <mxGeometry y="104" width="180" height="26" as="geometry"/>
                </mxCell>
                <mxCell id="31" value="" style="endArrow=diamondThin;endFill=0;endSize=24;html=1;entryX=-0.002;entryY=0.286;entryDx=0;entryDy=0;exitX=1;exitY=0.5;exitDx=0;exitDy=0;entryPerimeter=0;strokeColor=#FFFFFF;" edge="1" parent="1" source="4" target="23">
                    <mxGeometry width="160" relative="1" as="geometry">
                        <mxPoint x="280" y="86" as="sourcePoint"/>
                        <mxPoint x="440" y="90" as="targetPoint"/>
                    </mxGeometry>
                </mxCell>
                <mxCell id="32" value="notifyObservers()&lt;br&gt;&lt;blockquote style=&quot;margin: 0 0 0 40px ; border: none ; padding: 0px&quot;&gt;&lt;/blockquote&gt;&amp;nbsp; &amp;nbsp; for observer in ObserverCollection&lt;br&gt;&amp;nbsp; &amp;nbsp; &amp;nbsp; &amp;nbsp; call observer.update()" style="html=1;align=left;strokeColor=#FFFFFF;" vertex="1" parent="1">
                    <mxGeometry x="450" y="270" width="200" height="70" as="geometry"/>
                </mxCell>
                <mxCell id="33" value="" style="endArrow=none;html=1;strokeColor=#FFFFFF;" edge="1" parent="1" source="32" target="30">
                    <mxGeometry width="50" height="50" relative="1" as="geometry">
                        <mxPoint x="540" y="250" as="sourcePoint"/>
                        <mxPoint x="590" y="200" as="targetPoint"/>
                    </mxGeometry>
                </mxCell>
            </root>
        </mxGraphModel>
    </diagram>
</mxfile>